<svg width="281" height="79" viewBox="0 0 281 79" fill="none" xmlns="http://www.w3.org/2000/svg">
<g clip-path="url(#clip0_456_1063)">
<path d="M223.541 79C225.046 79 226.962 78.0482 227.782 76.8244L280.59 2.17556C281.41 0.951807 280.863 0 279.358 0H258.017C256.512 0 254.596 0.951807 253.776 2.17556L201.105 76.6885C200.284 77.9122 200.832 78.864 202.336 78.864H223.678L223.541 79Z" fill="#00FFB6"/>
<path d="M258.017 79C256.512 79 254.596 78.0482 253.776 76.8244L200.968 2.17556C200.148 0.951807 200.695 0 202.2 0H223.541C225.046 0 226.962 0.951807 227.782 2.17556L280.453 76.6885C281.274 77.9122 280.726 78.864 279.222 78.864H257.88L258.017 79Z" fill="#00FFB6"/>
<path d="M88.24 62.2754L73.6018 77.9122C73.3281 78.1842 72.9177 78.4561 72.5073 78.7281C72.0969 78.864 71.5497 79 71.1392 79H1.64168C1.36806 79 0.957644 79 0.684031 78.7281C0.410419 78.5921 0.136807 78.3201 3.12924e-07 78.0482C3.12924e-07 77.7763 -0.136806 77.3683 3.12924e-07 77.0964C3.12924e-07 76.8244 0.273613 76.4165 0.410419 76.2806L15.0487 60.6437C15.3223 60.3718 15.7327 60.0998 16.1431 59.8279C16.5536 59.6919 16.964 59.5559 17.5112 59.5559H86.872C87.1456 59.5559 87.556 59.5559 87.8296 59.8279C88.1032 59.9639 88.3768 60.2358 88.5136 60.5077C88.5136 60.7797 88.6504 61.1876 88.5136 61.4596C88.5136 61.7315 88.24 62.1394 88.1032 62.2754H88.24Z" fill="#00FFB6"/>
<path d="M73.6018 30.8658C73.3281 30.5938 72.9177 30.3219 72.5073 30.0499C72.0969 29.9139 71.5497 29.778 71.1392 29.778H1.64168C1.36806 29.778 0.957644 29.778 0.684031 30.0499C0.410419 30.1859 0.136807 30.4578 3.12924e-07 30.7298C3.12924e-07 31.0017 -0.136806 31.4096 3.12924e-07 31.6816C3.12924e-07 31.9535 0.273613 32.3614 0.410419 32.4974L15.0487 48.1343C15.3223 48.4062 15.7327 48.6781 16.1431 48.9501C16.5536 49.0861 16.964 49.222 17.5112 49.222H86.872C87.1456 49.222 87.556 49.222 87.8296 48.9501C88.1032 48.8141 88.3768 48.5422 88.5136 48.2702C88.5136 47.9983 88.6504 47.5904 88.5136 47.3184C88.5136 47.0465 88.24 46.6386 88.1032 46.5026L73.465 30.8658H73.6018Z" fill="#00FFB6"/>
<path d="M1.64167 19.58H71.0024C71.4129 19.58 71.9601 19.58 72.3705 19.3081C72.7809 19.1721 73.1913 18.9002 73.465 18.4923L88.1032 2.85542C88.3768 2.58348 88.5136 2.31153 88.5136 2.03959C88.5136 1.76764 88.5136 1.35972 88.5136 1.08778C88.5136 0.815833 88.1032 0.543888 87.8296 0.407916C87.556 0.271944 87.2824 0.135971 86.872 0.135971H17.648C17.2376 0.135971 16.6904 0.135971 16.2799 0.407916C15.8695 0.543888 15.4591 0.815833 15.1855 1.22375L0.410419 16.7246C0.136806 16.9966 0 17.2685 0 17.5404C0 17.8124 0 18.2203 0 18.4923C0 18.7642 0.410419 19.0361 0.684031 19.1721C0.957644 19.3081 1.23126 19.4441 1.64167 19.4441V19.58Z" fill="#00FFB6"/>
<path d="M122.305 77.6403V1.35972C122.305 0.608769 121.692 0 120.937 0L100.279 0C99.5234 0 98.9109 0.608769 98.9109 1.35972V77.6403C98.9109 78.3912 99.5234 79 100.279 79H120.937C121.692 79 122.305 78.3912 122.305 77.6403Z" fill="#00FFB6"/>
<path d="M157.054 64.043V1.35972C157.054 0.608766 156.441 -3.8147e-06 155.685 -3.8147e-06L135.028 -3.8147e-06C134.272 -3.8147e-06 133.66 0.608766 133.66 1.35972V64.043C133.66 64.794 134.272 65.4028 135.028 65.4028H155.685C156.441 65.4028 157.054 64.794 157.054 64.043Z" fill="#00FFB6"/>
<path d="M191.802 77.6403V1.35972C191.802 0.608766 191.19 -3.8147e-06 190.434 -3.8147e-06L169.777 -3.8147e-06C169.021 -3.8147e-06 168.408 0.608766 168.408 1.35972V77.6403C168.408 78.3912 169.021 79 169.777 79H190.434C191.19 79 191.802 78.3912 191.802 77.6403Z" fill="#00FFB6"/>
</g>
<defs>
<clipPath id="clip0_456_1063">
<rect width="281" height="79" fill="white"/>
</clipPath>
</defs>
</svg>
